<?xml version="1.0" encoding="UTF-8"?>
<svg version="1.1" xmlns="http://www.w3.org/2000/svg" width="1024" height="1024">
<path d="M0 0 C337.92 0 675.84 0 1024 0 C1024 337.92 1024 675.84 1024 1024 C686.08 1024 348.16 1024 0 1024 C0 686.08 0 348.16 0 0 Z " fill="#32353A" transform="translate(0,0)"/>
<path d="M0 0 C0.96421875 0.81339844 1.9284375 1.62679687 2.921875 2.46484375 C3.80359375 3.20605469 4.6853125 3.94726562 5.59375 4.7109375 C24.41056577 21.10260465 36.01770775 40.92772648 43.171875 64.71484375 C43.41848877 65.51124268 43.66510254 66.3076416 43.91918945 67.12817383 C48.39421065 82.83486357 48.21540658 99.35448056 48.18066406 115.54150391 C48.18338124 117.69551206 48.18694622 119.84951928 48.19128418 122.00352478 C48.20032296 127.79882649 48.1968997 133.59405619 48.19052601 139.389359 C48.18542287 145.48502817 48.19016923 151.58069164 48.19329834 157.67636108 C48.19692495 167.90599665 48.1921727 178.13560322 48.18261719 188.36523438 C48.17172935 200.15663207 48.17526592 211.94796061 48.18627 223.73935664 C48.19537323 233.90464733 48.19661352 244.06991732 48.19139266 254.23521078 C48.18829036 260.28849824 48.18781552 266.34175328 48.19446564 272.3950386 C48.20028303 278.08661925 48.19616254 283.7781115 48.18467712 289.46968269 C48.18205414 291.54639986 48.18275471 293.62312458 48.18720245 295.69983864 C48.26416478 335.31532479 38.60239689 370.21480773 10.921875 399.46484375 C9.85839844 400.60759766 9.85839844 400.60759766 8.7734375 401.7734375 C-13.78963681 425.27324594 -47.22725093 438.8293794 -79.609375 439.80078125 C-82.26718824 439.83105134 -84.92059289 439.84805777 -87.578125 439.83984375 C-88.27611206 439.83896759 -88.97409912 439.83809143 -89.6932373 439.83718872 C-126.81933988 439.68430409 -159.31172071 425.67854097 -185.765625 399.83984375 C-186.52875 399.05609375 -187.291875 398.27234375 -188.078125 397.46484375 C-188.56152344 397.03816406 -189.04492188 396.61148437 -189.54296875 396.171875 C-207.18501645 380.02421252 -217.7942844 354.75720148 -221.078125 331.46484375 C-221.18898438 330.76101563 -221.29984375 330.0571875 -221.4140625 329.33203125 C-221.92981854 325.77749636 -222.12128731 322.30599608 -222.1015625 318.72265625 C-222.09817871 317.92230957 -222.09479492 317.12196289 -222.09130859 316.29736328 C-222.08695801 315.69263184 -222.08260742 315.08790039 -222.078125 314.46484375 C-221.31106232 314.46119812 -220.54399963 314.45755249 -219.75369263 314.45379639 C-212.48675419 314.4157605 -205.22031962 314.35873337 -197.95370674 314.28094101 C-194.21879574 314.24161168 -190.48411535 314.20935278 -186.74902344 314.19384766 C-183.13716389 314.178584 -179.52593901 314.14397039 -175.91436386 314.09653473 C-174.54388861 314.08181999 -173.17332269 314.07380849 -171.80276871 314.0729599 C-163.20035317 314.06228752 -154.25251946 313.92914907 -147.40115356 308.01800537 C-143.90742099 304.10157125 -143.21563159 301.25242943 -142.828125 296.21484375 C-143.19864987 290.65697074 -144.39033069 286.30156109 -148.203125 282.15234375 C-156.64147342 277.19940011 -164.89886419 277.00006266 -174.51953125 276.953125 C-175.89673938 276.93624763 -177.2739324 276.91809336 -178.65110779 276.89872742 C-182.24634067 276.85155229 -185.84151225 276.82153436 -189.43695068 276.79528809 C-193.11759461 276.76531691 -196.79803206 276.71900152 -200.47851562 276.67382812 C-207.67839966 276.58664282 -214.87779477 276.52642133 -222.078125 276.46484375 C-222.078125 260.95484375 -222.078125 245.44484375 -222.078125 229.46484375 C-217.63472656 229.42746094 -213.19132812 229.39007813 -208.61328125 229.3515625 C-205.0501244 229.31340401 -201.48702738 229.27233164 -197.92392731 229.22930145 C-194.17383397 229.18480662 -190.42384808 229.14533824 -186.67358398 229.1184082 C-183.05533075 229.09222608 -179.4374854 229.05172131 -175.81948662 229.00165749 C-174.44538927 228.98508874 -173.07122153 228.97351267 -171.69703865 228.96722984 C-158.50959159 228.94954155 -158.50959159 228.94954155 -147.140625 223.02734375 C-142.42569894 217.16940532 -142.28791819 211.83352221 -143.078125 204.46484375 C-145.36746042 199.53396746 -148.32135995 197.02617878 -153.078125 194.46484375 C-160.39722046 192.07645069 -167.55217337 192.11913163 -175.203125 192.05078125 C-176.55933776 192.03204014 -177.91553922 192.01246461 -179.27172852 191.99209595 C-182.81599217 191.94107897 -186.36029351 191.90129194 -189.90472412 191.86395264 C-193.5316269 191.82372049 -197.15837947 191.77281935 -200.78515625 191.72265625 C-207.88275338 191.62526212 -214.98023916 191.54550154 -222.078125 191.46484375 C-222.078125 175.95484375 -222.078125 160.44484375 -222.078125 144.46484375 C-217.49035156 144.42746094 -212.90257812 144.39007813 -208.17578125 144.3515625 C-205.25452105 144.32125596 -202.3333198 144.29009073 -199.41210938 144.25585938 C-194.78413 144.20170867 -190.15626724 144.15059278 -185.52807617 144.1184082 C-181.79312016 144.0922351 -178.05855988 144.05173629 -174.32385063 144.00165749 C-172.90509432 143.98508276 -171.48626972 143.97351036 -170.0674305 143.96722984 C-157.47181785 144.2749941 -157.47181785 144.2749941 -146.46913147 139.01347351 C-141.80523744 133.61152993 -141.72815309 129.61354595 -141.8046875 122.671875 C-142.16146809 118.48734834 -143.1060981 116.43687065 -146.078125 113.46484375 C-151.95025534 109.1790235 -157.40869111 108.35771562 -164.52075195 108.25952148 C-165.80170242 108.23957626 -167.08265289 108.21963104 -168.40242004 108.19908142 C-169.79041424 108.18210097 -171.17840967 108.16522202 -172.56640625 108.1484375 C-173.99416175 108.12784951 -175.42191141 108.10685257 -176.84965515 108.08546448 C-180.59619395 108.03043422 -184.34278601 107.98094148 -188.0894165 107.93261719 C-191.91708074 107.88226254 -195.74466823 107.82664957 -199.57226562 107.77148438 C-207.07415363 107.66413599 -214.57610574 107.56263988 -222.078125 107.46484375 C-222.09650293 104.2981849 -222.10745836 101.13154005 -222.1171875 97.96484375 C-222.12242432 97.07796875 -222.12766113 96.19109375 -222.13305664 95.27734375 C-222.2078977 62.70651615 -209.40627857 33.80408352 -187.078125 10.46484375 C-186.51867187 9.85382813 -185.95921875 9.2428125 -185.3828125 8.61328125 C-172.1772207 -5.3578521 -154.06872506 -15.24315581 -136.078125 -21.53515625 C-135.45115723 -21.76041992 -134.82418945 -21.98568359 -134.17822266 -22.21777344 C-90.32930313 -37.81690695 -36.27057977 -29.6800968 0 0 Z " fill="#FEFEFE" transform="translate(600.078125,205.53515625)"/>
<path d="M0 0 C1.21171875 -0.02578125 2.4234375 -0.0515625 3.671875 -0.078125 C9.50085632 0.4564104 13.25341211 2.70815097 17 7.125 C17.57234375 7.78242188 18.1446875 8.43984375 18.734375 9.1171875 C21.72489109 13.32549106 22.50060558 17.03440818 22.53710938 22.14746094 C22.55052368 23.31347839 22.56393799 24.47949585 22.57775879 25.68084717 C22.58303589 26.93601135 22.58831299 28.19117554 22.59375 29.484375 C22.61610794 31.48208464 22.63847666 33.47979422 22.66143036 35.4774971 C22.69906665 38.98493369 22.72405114 42.49246075 22.75 46 C22.76188854 70.2065368 22.76188854 70.2065368 25.25 94.25 C25.39034668 95.15411621 25.53069336 96.05823242 25.67529297 96.98974609 C28.78469634 115.49012528 35.2730406 132.83239121 44.25 149.25 C45.11431641 150.85101562 45.11431641 150.85101562 45.99609375 152.484375 C67.75914709 191.28593892 106.61766299 222.06178291 149.0859375 235.1953125 C180.12109117 243.46606189 210.81274707 244.66608868 242.25 238.25 C243.15282715 238.06808105 244.0556543 237.88616211 244.98583984 237.69873047 C269.81054654 232.52093983 293.27011715 221.87818137 313.25 206.25 C313.78012695 205.83556641 314.31025391 205.42113281 314.85644531 204.99414062 C351.92321874 175.60499636 375.77876525 135.84664906 382.83227539 88.92463684 C383.48871007 83.15011701 383.51331937 77.3912629 383.49382973 71.58783913 C383.48812063 69.39534792 383.49757677 67.20336344 383.5110321 65.01091003 C383.54770335 58.78825158 383.5666945 52.56578183 383.55541992 46.34301758 C383.54953205 42.50870026 383.56798719 38.67511581 383.60130882 34.8409481 C383.6091901 33.3950779 383.60808601 31.94912625 383.59728432 30.50327492 C383.5349884 21.80055343 383.93238752 14.44327723 389.25 7.25 C395.56026441 1.37563225 400.59953319 -0.12689043 409.17578125 -0.0234375 C415.43215535 0.53303796 419.45594521 3.09753103 423.625 7.6875 C427.48726342 12.33731993 428.50006075 16.67571642 428.5246582 22.66308594 C428.53419022 23.94342712 428.54372223 25.22376831 428.55354309 26.54290771 C428.55328111 27.94006376 428.55234142 29.33721981 428.55078125 30.734375 C428.55467858 32.19191609 428.55901534 33.64945607 428.56376648 35.10699463 C428.57123102 38.17358045 428.57094249 41.2400513 428.56567383 44.30664062 C428.56109778 47.39988969 428.56774318 50.49274057 428.58618164 53.5859375 C428.99380062 122.5544964 407.01723712 178.87581951 358.4375 228.4375 C350.959339 235.9004214 342.94985736 242.27649909 334.25 248.25 C333.21141846 248.96712158 333.21141846 248.96712158 332.15185547 249.69873047 C308.33938287 265.99147488 281.25848619 277.43321511 253.1875 284 C252.35049561 284.19875732 251.51349121 284.39751465 250.65112305 284.60229492 C242.16957018 286.48843188 234.0195414 287.21828925 225.25 288.25 C225.25 313 225.25 337.75 225.25 363.25 C231.28152344 363.20359375 237.31304688 363.1571875 243.52734375 363.109375 C247.36004337 363.08892457 251.19267524 363.06966796 255.02539062 363.0546875 C261.10211242 363.03082319 267.17859196 363.00266331 273.25512695 362.94824219 C278.15698964 362.90461864 283.05859233 362.88082803 287.96063423 362.87049103 C289.82605644 362.86312922 291.69146523 362.84875349 293.55677605 362.82707977 C314.31379031 362.5955997 314.31379031 362.5955997 321.37109375 369.25 C321.80550781 369.91 322.23992187 370.57 322.6875 371.25 C323.13996094 371.91 323.59242188 372.57 324.05859375 373.25 C324.45175781 373.91 324.84492187 374.57 325.25 375.25 C325.81267578 376.18585938 325.81267578 376.18585938 326.38671875 377.140625 C328.43672436 382.14968848 328.02549586 388.45449997 326.59765625 393.6015625 C323.96966396 399.44405179 319.61113192 403.86466451 313.67833519 406.30994606 C309.4914916 407.45798398 305.73818788 407.53386328 301.42007446 407.51742554 C300.10390579 407.52422221 300.10390579 407.52422221 298.76114786 407.53115618 C295.82720226 407.54379501 292.89344242 407.54218014 289.95947266 407.54052734 C287.8533657 407.54651287 285.74726094 407.55331847 283.64115906 407.56088257 C277.92420564 407.57854622 272.2073121 407.58323808 266.49033403 407.58451414 C262.91792077 407.58593596 259.34552273 407.59020613 255.77311325 407.59550858 C243.30836775 407.61400928 230.84366502 407.62217904 218.37890625 407.62060547 C206.76250128 407.61940371 195.14628201 407.64051288 183.52992404 407.6720928 C173.5535309 407.69824727 163.57719846 407.70897313 153.60077131 407.70769465 C147.64363856 407.70718482 141.68667088 407.71287985 135.7295723 407.73405075 C130.12674824 407.75341928 124.52424698 407.75356687 118.92141151 407.73901749 C116.86713883 407.73692666 114.81284602 407.74164652 112.75860786 407.7537384 C109.94999095 407.76919787 107.14248616 407.75987803 104.33389282 407.74447632 C103.52473439 407.75476344 102.71557595 407.76505057 101.88189757 407.77564943 C95.21762554 407.69512051 90.07322202 405.6797416 85.0078125 401.3203125 C80.01963552 395.3774605 77.71656429 390.47343007 77.94140625 382.6171875 C78.83393159 375.7707273 81.98825013 370.85017967 87.17578125 366.44140625 C92.79977148 363.21105404 98.53426024 362.96396749 104.84741211 363.02294922 C105.67748779 363.02265717 106.50756348 363.02236511 107.36279297 363.02206421 C110.08441924 363.02344856 112.80576578 363.03896733 115.52734375 363.0546875 C117.42305858 363.05842081 119.31877534 363.06126628 121.2144928 363.06326294 C126.18752432 363.07087432 131.16043776 363.09050128 136.13342285 363.1126709 C142.10901703 363.13679397 148.08465084 363.14592219 154.06027985 363.15757751 C163.12360185 363.17692719 172.18666511 363.21526719 181.25 363.25 C181.25 338.5 181.25 313.75 181.25 288.25 C178.61 288.25 175.97 288.25 173.25 288.25 C150.05693577 286.1127107 127.04569967 278.52564455 106.25 268.25 C105.06535156 267.6828125 103.88070312 267.115625 102.66015625 266.53125 C94.39854841 262.36849511 86.71156797 257.41496188 79 252.3125 C78.00597168 251.65636719 77.01194336 251.00023437 75.98779297 250.32421875 C55.67889115 236.67480242 39.45393031 220.02578569 24.92773438 200.50146484 C23.82263188 199.01845332 22.71207511 197.53948822 21.59570312 196.06494141 C-12.03472516 151.62758893 -22.09617637 104.79847348 -22.17553711 49.85668945 C-22.18762453 45.89670232 -22.23719041 41.9381852 -22.28710938 37.97851562 C-22.29655713 35.42709077 -22.30380001 32.87565659 -22.30859375 30.32421875 C-22.32812607 29.15743088 -22.34765839 27.99064301 -22.36778259 26.78849792 C-22.32669445 19.30987661 -21.16168958 13.42485843 -16.75 7.25 C-11.32353906 2.24535641 -7.41907553 0.09391235 0 0 Z " fill="#FEFEFE" transform="translate(308.75,444.75)"/>
</svg>
